  <?xml version="1.0" standalone="no"?>
  <!DOCTYPE svg PUBLIC "-//W3C//DTD SVG 20010904//EN"
  "http://www.w3.org/TR/2001/REC-SVG-20010904/DTD/svg10.dtd">
  <svg version="1.0" xmlns="http://www.w3.org/2000/svg"
  width="304.000000pt" height="304.000000pt" viewBox="0 0 304.000000 304.000000"
  preserveAspectRatio="xMidYMid meet">
  <metadata>
  Created by potrace 1.14, written by Peter Selinger 2001-2017
  </metadata>
  <g transform="translate(0.000000,304.000000) scale(0.100000,-0.100000)"
  fill="#000000" stroke="none">
  <path d="M820 2001 c-71 -25 -114 -74 -140 -159 -18 -56 -20 -93 -20 -303 0
  -264 7 -313 53 -390 43 -71 97 -99 204 -106 199 -14 289 67 301 270 l5 87 -97
  0 -96 0 0 -50 c0 -74 -19 -149 -40 -160 -24 -13 -66 -13 -90 0 -35 18 -40 65
  -40 340 0 326 6 350 87 350 59 0 82 -46 83 -162 l0 -58 95 0 95 0 0 73 c0 131
  -48 228 -128 263 -60 26 -206 29 -272 5z"/>
  <path d="M1466 1983 c-2 -10 -44 -214 -91 -453 -47 -239 -88 -443 -91 -452 -5
  -16 4 -18 89 -18 l94 0 19 103 19 102 77 3 c88 3 80 13 99 -120 l12 -88 94 0
  c51 0 93 3 93 8 -1 4 -43 214 -93 467 l-93 460 -111 3 c-100 2 -112 1 -117
  -15z m168 -555 l6 -38 -59 0 c-51 0 -59 2 -55 18 2 9 13 78 24 152 11 74 23
  146 27 160 6 22 20 -52 57 -292z"/>
  <path d="M1860 1930 l0 -70 75 0 75 0 0 -400 0 -400 100 0 100 0 0 400 0 400
  75 0 75 0 0 70 0 70 -250 0 -250 0 0 -70z"/>
  </g>
  </svg>
